<?xml version="1.0" encoding="utf-8"?>
<!-- Generator: Adobe Illustrator 16.0.0, SVG Export Plug-In . SVG Version: 6.00 Build 0)  -->
<!DOCTYPE svg PUBLIC "-//W3C//DTD SVG 1.1//EN" "http://www.w3.org/Graphics/SVG/1.1/DTD/svg11.dtd">
<svg version="1.1" id="Layer_1" xmlns="http://www.w3.org/2000/svg" xmlns:xlink="http://www.w3.org/1999/xlink" x="0px" y="0px"
	 width="100px" height="100px" viewBox="717.7 346.815 100 100" enable-background="new 717.7 346.815 100 100"
	 xml:space="preserve">
<g>
	<g>
		<g>
			<path fill="#0F5FCC" d="M757.482,429.624c0,0.022-0.001,0.045-0.001,0.068c0,5.644,4.574,10.218,10.218,10.218
				c5.645,0,10.22-4.574,10.22-10.218c0-0.023-0.001-0.046-0.001-0.068H757.482z"/>
			<path fill="#0F5FCC" d="M800.327,416.852l-9.196-13.513c0-4.135,0-14.241,0-16.855c0-11.368-8.097-20.843-18.836-22.979v-5.19
				c0-2.538-2.058-4.595-4.596-4.595c-2.536,0-4.594,2.057-4.594,4.595v5.19c-10.74,2.135-18.835,11.611-18.835,22.979
				c0,4.45,0,14.276,0,16.855l-9.197,13.513c-0.969,1.422-1.071,3.264-0.266,4.786c0.805,1.521,2.385,2.474,4.107,2.474h57.574
				c1.721,0,3.302-0.952,4.106-2.474C801.399,420.115,801.296,418.273,800.327,416.852z"/>
		</g>
	</g>
</g>
</svg>
