<?xml version="1.0" encoding="utf-8"?>
<!-- Generator: Adobe Illustrator 16.0.0, SVG Export Plug-In . SVG Version: 6.00 Build 0)  -->
<!DOCTYPE svg PUBLIC "-//W3C//DTD SVG 1.1//EN" "http://www.w3.org/Graphics/SVG/1.1/DTD/svg11.dtd">
<svg version="1.1" id="Layer_1" xmlns="http://www.w3.org/2000/svg" xmlns:xlink="http://www.w3.org/1999/xlink" x="0px" y="0px"
	 width="100px" height="100px" viewBox="717.7 346.815 100 100" enable-background="new 717.7 346.815 100 100"
	 xml:space="preserve">
<g opacity="0.5">
	<path fill="#FFFFFF" stroke="#006DDA" stroke-width="2.7159" stroke-miterlimit="10" d="M813.106,396.816
		c0,25.078-20.33,45.406-45.408,45.406c-25.076,0-45.405-20.328-45.405-45.406c0-25.077,20.33-45.406,45.405-45.406
		C792.776,351.409,813.106,371.738,813.106,396.816z"/>
	<g>
		<path fill="#006DDA" d="M806.616,397.028c0,21.492-17.424,38.915-38.917,38.915c-21.491,0-38.915-17.423-38.915-38.915
			c0-21.493,17.423-38.916,38.915-38.916C789.192,358.112,806.616,375.535,806.616,397.028z"/>
		<circle fill="#FFFFFF" cx="767.589" cy="396.927" r="19.82"/>
		<path fill="#F18400" d="M782.551,396.768c0,8.331-6.754,15.086-15.087,15.086c-8.332,0-15.086-6.754-15.086-15.086
			c0-8.332,6.754-15.087,15.086-15.087C775.797,381.681,782.551,388.436,782.551,396.768z"/>
	</g>
</g>
</svg>
