<?xml version="1.0" encoding="utf-8"?>
<!-- Generator: Adobe Illustrator 16.0.0, SVG Export Plug-In . SVG Version: 6.00 Build 0)  -->
<!DOCTYPE svg PUBLIC "-//W3C//DTD SVG 1.1//EN" "http://www.w3.org/Graphics/SVG/1.1/DTD/svg11.dtd">
<svg version="1.1" id="Layer_1" xmlns="http://www.w3.org/2000/svg" xmlns:xlink="http://www.w3.org/1999/xlink" x="0px" y="0px"
	 width="300px" height="300px" viewBox="0 0 300 300" enable-background="new 0 0 300 300" xml:space="preserve">
<g>
	<path fill="#006DDA" d="M264.154,144.184c0,61.183-49.602,110.781-110.785,110.781c-61.181,0-110.78-49.598-110.78-110.781
		c0-61.184,49.6-110.783,110.78-110.783C214.553,33.398,264.154,82.999,264.154,144.184z"/>
	<path fill="#FFFFFF" d="M153.057,87.474c31.158,0,56.42,25.261,56.42,56.421c0,31.158-25.262,56.421-56.42,56.421
		c-31.161,0-56.421-25.264-56.421-56.421C96.636,112.735,121.896,87.474,153.057,87.474z"/>
	<path fill="none" stroke="#9B9C9B" stroke-width="8" stroke-miterlimit="10" d="M90.748,256.305
		c-106.669,83.459-40.489-35.086-40.489-35.086l0,0c-12.199-16.902-22.288-39.447-25.125-61.578
		C16.057,88.831,66.101,24.07,136.905,14.994c70.812-9.08,135.575,40.964,144.651,111.774
		c9.076,70.809-40.969,135.568-111.779,144.646C141.398,275.051,113.989,269.191,90.748,256.305z"/>
	<g>
		<g>
			<g>
				<path fill="#EF8520" d="M185.102,159.49l-8.318-8.314c-2.219-2.217-6.094-2.221-8.316,0l-1.385,1.389l16.633,16.629l1.387-1.385
					C187.404,165.506,187.395,161.783,185.102,159.49z"/>
			</g>
		</g>
		<g>
			<g>
				<path fill="#EF8520" d="M164.232,155.258c-1.75,1.352-4.246,1.303-5.848-0.303l-16.439-16.453
					c-1.604-1.601-1.657-4.1-0.302-5.845l-16.595-16.593c-7.139,8.322-6.859,20.86,1.019,28.74l26.02,26.031
					c7.559,7.563,19.947,8.563,28.74,1.016L164.232,155.258z"/>
			</g>
		</g>
		<g>
			<g>
				<path fill="#EF8520" d="M145.726,120.107l-8.316-8.317c-2.218-2.218-6.095-2.223-8.317,0l-1.386,1.386l16.634,16.634
					l1.386-1.388C148.028,126.12,148.021,122.396,145.726,120.107z"/>
			</g>
		</g>
	</g>
</g>
</svg>
